<svg width="100" height="100" viewBox="0 0 100 100" fill="none" xmlns="http://www.w3.org/2000/svg">
<path fill-rule="evenodd" clip-rule="evenodd" d="M73.1383 1.06396H26.7943C15.8262 1.06396 6.93262 9.9576 6.93262 20.9257V67.2697C6.93262 78.2377 15.8262 87.1314 26.7943 87.1314H36.7885C39.6712 87.1314 40.9796 87.3731 42.3479 88.1609C43.8543 89.0282 44.6928 91.3103 45.5274 93.582C46.5752 96.4337 47.6169 99.2691 49.9663 99.2691C52.2262 99.2691 53.2762 96.6162 54.3644 93.8667C55.3087 91.4806 56.2819 89.0219 58.0995 88.1609C59.5681 87.4652 60.6733 87.1314 63.247 87.1314H73.1383C84.1064 87.1314 93 78.2377 93 67.2697V20.9257C93 9.9576 84.1064 1.06396 73.1383 1.06396ZM49.8633 72.4709C38.0236 72.4709 27.0003 66.6117 20.3687 56.7912C19.2432 55.125 19.6846 52.863 21.3508 51.7375C23.0169 50.612 25.279 51.0533 26.4045 52.7195C31.6788 60.5208 40.4511 65.1883 49.8633 65.1883C59.2756 65.1883 68.0478 60.5208 73.3333 52.7085C74.4588 51.0423 76.7208 50.6009 78.387 51.7264C80.0531 52.8519 80.4945 55.114 79.369 56.7801C72.7264 66.6117 61.7031 72.4709 49.8633 72.4709ZM66.4146 21.5144V28.1349H59.794V34.7555H66.4146V41.3761H59.794V47.9967H53.1734V41.3761H46.5529V47.9967H39.9323V41.3761H33.3117V34.7555H39.9323V28.1349H33.3117V21.5144H39.9323V14.8938H46.5529V21.5144H53.1734V14.8938H59.794V21.5144H66.4146ZM46.5529 34.7555H53.1734V28.1349H46.5529V34.7555Z" fill="url(#paint0_linear_3038_262177)"/>
<defs>
<linearGradient id="paint0_linear_3038_262177" x1="75.3745" y1="83.3369" x2="-11.3936" y2="5.96414" gradientUnits="userSpaceOnUse">
<stop stop-color="#3C16D3"/>
<stop offset="0.442708" stop-color="#1271FF"/>
<stop offset="0.989583" stop-color="#2CF2FF"/>
</linearGradient>
</defs>
</svg>
